<?xml version="1.0" encoding="UTF-8"?>
<!-- Generated by Pixelmator Pro 3.4.1 -->
<svg width="742" height="712" viewBox="0 0 742 712" xmlns="http://www.w3.org/2000/svg">
    <g id="g1">
        <path id="e-117" fill="#e6e6e6" stroke="none" d="M 359.880981 570.260925 L 154.343994 570.260925 C 152.242889 570.258728 150.540192 568.555969 150.537994 566.454895 L 150.537994 515.470947 C 150.540741 513.370056 152.243134 511.667664 154.343994 511.664917 L 359.880981 511.664917 C 361.981873 511.667664 363.684265 513.370056 363.687012 515.470947 L 363.687012 566.455933 C 363.684265 568.556824 361.981873 570.259216 359.880981 570.261963 L 359.880981 570.260925 Z M 154.343994 513.186951 C 153.083023 513.188049 152.061096 514.209961 152.059998 515.470947 L 152.059998 566.455933 C 152.061096 567.716919 153.083023 568.738831 154.343994 568.739929 L 359.880981 568.739929 C 361.141968 568.738831 362.163879 567.716919 362.164978 566.455933 L 362.164978 515.470947 C 362.163879 514.209961 361.141968 513.188049 359.880981 513.186951 L 154.343994 513.186951 Z"/>
        <path id="l-123" fill="#e6e6e6" stroke="none" d="M 359.880981 570.260925 L 154.343994 570.260925 C 152.242889 570.258728 150.540192 568.555969 150.537994 566.454895 L 150.537994 515.470947 C 150.540741 513.370056 152.243134 511.667664 154.343994 511.664917 L 359.880981 511.664917 C 361.981873 511.667664 363.684265 513.370056 363.687012 515.470947 L 363.687012 566.455933 C 363.684265 568.556824 361.981873 570.259216 359.880981 570.261963 L 359.880981 570.260925 Z M 154.343994 513.186951 C 153.083023 513.188049 152.061096 514.209961 152.059998 515.470947 L 152.059998 566.455933 C 152.061096 567.716919 153.083023 568.738831 154.343994 568.739929 L 359.880981 568.739929 C 361.141968 568.738831 362.163879 567.716919 362.164978 566.455933 L 362.164978 515.470947 C 362.163879 514.209961 361.141968 513.188049 359.880981 513.186951 L 154.343994 513.186951 Z"/>
        <path id="m-124" fill="#e6e6e6" stroke="none" d="M 194.258728 530.304932 C 192.78717 530.304932 191.594238 531.497864 191.594238 532.969421 C 191.594238 534.440979 192.78717 535.633911 194.258728 535.633911 L 319.863708 535.633911 C 321.334473 535.690247 322.572449 534.54364 322.628784 533.072937 C 322.685181 531.602173 321.538574 530.364197 320.06781 530.3078 C 320.028809 530.306335 319.989746 530.305664 319.950684 530.305908 L 194.258728 530.305908 L 194.258728 530.304932 L 194.258728 530.304932 Z"/>
        <path id="n-125" fill="#e6e6e6" stroke="none" d="M 194.258728 546.290955 C 192.78717 546.290955 191.594238 547.483887 191.594238 548.955444 C 191.594238 550.427002 192.78717 551.619934 194.258728 551.619934 L 319.863708 551.619934 C 321.334473 551.67627 322.572449 550.529724 322.628784 549.05896 C 322.685181 547.588196 321.538574 546.35022 320.06781 546.293823 C 320.028809 546.292358 319.989746 546.291687 319.950684 546.291931 L 194.258728 546.291931 L 194.258728 546.290955 L 194.258728 546.290955 Z"/>
        <path id="o-126" fill="#e6e6e6" stroke="none" d="M 359.880981 172.444946 L 154.343994 172.444946 C 152.242889 172.442749 150.540192 170.73999 150.537994 168.638916 L 150.537994 117.654968 C 150.540741 115.554077 152.243134 113.851685 154.343994 113.848938 L 359.880981 113.848938 C 361.981873 113.851685 363.684265 115.554077 363.687012 117.654968 L 363.687012 168.639954 C 363.684265 170.740845 361.981873 172.443237 359.880981 172.445984 L 359.880981 172.444946 Z M 154.343994 115.370972 C 153.083023 115.37207 152.061096 116.393982 152.059998 117.654968 L 152.059998 168.639954 C 152.061096 169.90094 153.083023 170.922852 154.343994 170.92395 L 359.880981 170.92395 C 361.141968 170.922852 362.163879 169.90094 362.164978 168.639954 L 362.164978 117.654968 C 362.163879 116.393982 361.141968 115.37207 359.880981 115.370972 L 154.343994 115.370972 Z"/>
        <path id="p-127" fill="#e6e6e6" stroke="none" d="M 217.907974 132.488953 C 216.436417 132.488953 215.243484 133.681885 215.243484 135.153442 C 215.243484 136.625 216.436417 137.817932 217.907974 137.817932 L 343.512939 137.817932 C 344.983704 137.874268 346.22168 136.727661 346.278015 135.256958 C 346.334412 133.786194 345.187805 132.548218 343.717041 132.491821 C 343.67804 132.490356 343.638977 132.489685 343.599915 132.489929 L 217.907959 132.489929 L 217.907959 132.488953 L 217.907974 132.488953 Z"/>
        <path id="q-128" fill="#e6e6e6" stroke="none" d="M 217.907974 148.474915 C 216.436417 148.474915 215.243484 149.667847 215.243484 151.139404 C 215.243484 152.610962 216.436417 153.803894 217.907974 153.803894 L 343.512939 153.803894 C 344.983704 153.860229 346.22168 152.713684 346.278015 151.24292 C 346.334412 149.772217 345.187805 148.53418 343.717041 148.477783 C 343.67804 148.476318 343.638977 148.475647 343.599915 148.475891 L 217.907959 148.475891 L 217.907959 148.474915 L 217.907974 148.474915 Z"/>
        <path id="r" fill="#e6e6e6" stroke="none" d="M 196.972977 143.145935 C 196.972977 151.974792 189.815811 159.131958 180.986984 159.131958 C 172.158157 159.131958 165.000977 151.974792 165.000977 143.145935 C 165.000977 134.317139 172.158157 127.159973 180.986984 127.159973 C 189.815811 127.159973 196.972977 134.317139 196.972977 143.145935 Z"/>
    </g>
</svg>
