<?xml version="1.0" encoding="UTF-8"?>
<!-- Generated by Pixelmator Pro 3.4.1 -->
<svg width="742" height="712" viewBox="0 0 742 712" xmlns="http://www.w3.org/2000/svg">
    <g id="g1">
        <path id="f-118" fill="#e6e6e6" stroke="none" d="M 740.478943 712 L 1.93799 712 C 0.86701 712 0 711.531982 0 710.955017 C 0 710.378052 0.86798 709.910034 1.93799 709.910034 L 740.479065 709.910034 C 741.549011 709.910034 742.417053 710.378052 742.417053 710.955017 C 742.417053 711.531982 741.549988 712 740.478943 712 Z"/>
        <g id="g2">
            <g id="g3">
                <path id="path1" fill="#ffb6b6" stroke="none" d="M 596.19519 702.177979 L 586.164612 702.177002 L 581.393005 663.487183 L 596.197205 663.48822 L 596.19519 702.177979 Z"/>
                <path id="path2" fill="#2f2e41" stroke="none" d="M 561.829163 701.950439 L 561.829163 701.950439 C 561.516846 702.47644 561.352051 704.174133 561.352051 704.785828 L 561.352051 704.785828 C 561.352051 706.666016 562.876221 708.190247 564.75647 708.190247 L 595.820007 708.190247 C 597.102661 708.190247 598.142517 707.150452 598.142517 705.867737 L 598.142517 704.574463 C 598.142517 704.574463 599.679199 700.6875 596.515442 695.896606 C 596.515442 695.896606 592.583313 699.647949 586.707703 693.772339 L 584.975037 690.633484 L 572.432922 699.806152 L 565.481018 700.661865 C 563.960083 700.84906 562.611633 700.632813 561.829285 701.950439 L 561.829163 701.950439 Z"/>
            </g>
            <g id="g4">
                <path id="path3" fill="#ffb6b6" stroke="none" d="M 634.19519 702.177979 L 624.164612 702.177002 L 619.393005 663.487183 L 634.197205 663.48822 L 634.19519 702.177979 Z"/>
                <path id="path4" fill="#2f2e41" stroke="none" d="M 599.829163 701.950439 L 599.829163 701.950439 C 599.516846 702.47644 599.352051 704.174133 599.352051 704.785828 L 599.352051 704.785828 C 599.352051 706.666016 600.876221 708.190247 602.75647 708.190247 L 633.820007 708.190247 C 635.102661 708.190247 636.142517 707.150452 636.142517 705.867737 L 636.142517 704.574463 C 636.142517 704.574463 637.679199 700.6875 634.515442 695.896606 C 634.515442 695.896606 630.583313 699.647949 624.707703 693.772339 L 622.975037 690.633484 L 610.432922 699.806152 L 603.481018 700.661865 C 601.960083 700.84906 600.611633 700.632813 599.829285 701.950439 L 599.829163 701.950439 Z"/>
            </g>
            <path id="path5" fill="#2f2e41" stroke="none" d="M 576.862488 469.981201 L 576.640625 684.839478 L 602.917236 684.839478 L 615.328125 525.957092 L 615.682495 684.839417 L 639.968201 684.555603 L 658.768311 501.785645 C 658.768311 501.785645 661.299194 482.702942 653.324646 472.949554 C 645.350037 463.196167 576.862488 469.98114 576.862488 469.98114 L 576.862488 469.981201 Z"/>
            <path id="path6" fill="#ffb6b6" stroke="none" d="M 576.277771 494.43866 C 576.813049 501.085022 573.818298 506.749054 569.588745 507.089691 C 565.359253 507.430298 561.496643 502.318542 560.961426 495.67215 C 560.727112 492.762817 561.169373 490.041779 562.095337 487.872986 L 560.180603 459.681976 L 573.429016 459.065186 L 573.9104 486.921478 C 575.171509 488.914124 576.043457 491.529327 576.277771 494.43866 Z"/>
            <path id="s-129" fill="#e6e6e6" stroke="none" d="M 634.448059 333.376953 L 606.248047 331.437958 L 597.810059 344.737946 L 577.489075 352.999939 L 577.489075 418.53894 C 579.603394 424.88446 580.696289 431.525513 580.727051 438.213928 C 580.649048 451.270935 577.294067 466.651917 578.455078 470.020905 C 589.815063 502.963898 652.292053 470.020905 652.292053 470.020905 L 651.156067 434.805908 L 652.698059 355.221893 L 639.93103 345.038879 L 634.448059 333.376953 Z"/>
            <path id="t-130" fill="#e6e6e6" stroke="none" d="M 582.090942 351.25592 L 581.758972 351.31192 C 575.479797 352.374969 570.129211 356.467224 567.458984 362.248932 C 564.024963 369.675934 559.233032 477.319946 559.233032 477.319946 C 559.233032 477.319946 572.042053 476.347961 578.417053 479.394958 C 578.417053 479.394958 581.295044 463.541962 579.571045 460.784943 C 577.847046 458.027924 581.07605 430.45694 581.07605 430.45694 C 588.084961 412.13092 585.318909 381.96994 582.090942 351.25592 Z"/>
            <path id="path7" fill="#ffb6b6" stroke="none" d="M 672.011169 493.121246 C 671.987366 499.789093 668.52832 505.182129 664.285156 505.166992 C 660.041992 505.151855 656.621521 499.734253 656.645325 493.066406 C 656.655762 490.147675 657.324524 487.473267 658.429016 485.38974 L 658.884277 457.137451 L 672.137756 457.633453 L 670.282227 485.432068 C 671.371826 487.523438 672.021545 490.202515 672.011108 493.121246 L 672.011169 493.121246 Z"/>
            <path id="u-131" fill="#e6e6e6" stroke="none" d="M 646.838074 353.201965 L 647.173096 353.240967 C 653.495911 353.986969 659.044006 357.803223 662.002075 363.440979 C 665.802063 370.684967 675.714966 462.904968 675.39801 464.587982 C 675.081055 466.270996 676.020996 477.957001 676.020996 477.957001 C 676.020996 477.957001 663.179016 477.633026 656.966003 480.996979 L 651.840088 432.253967 L 646.838074 353.201965 Z"/>
            <path id="v" fill="#ffb6b6" stroke="none" d="M 643.324768 305.370728 C 643.324768 317.518219 633.477234 327.365723 621.329712 327.365723 C 609.182251 327.365723 599.334717 317.518219 599.334717 305.370728 C 599.334717 293.223206 609.182251 283.375702 621.329712 283.375702 C 633.477234 283.375702 643.324768 293.223206 643.324768 305.370728 Z"/>
            <path id="w-132" fill="#2f2e41" stroke="none" d="M 636.635498 324.197723 C 639.694519 321.803711 639.991516 317.240723 642.601501 314.363739 C 646.965515 309.554749 649.016479 304.37973 646.73053 298.681732 C 644.708557 293.641724 645.13855 287.44574 640.782532 284.201721 C 642.921509 283.427734 635.520508 284.202728 637.803528 281.171722 C 640.086548 278.140717 635.764526 279.337708 636.050537 278.09671 C 636.336548 276.855713 632.446289 274.582611 629.918579 277.058044 C 629.538513 277.430267 629.206299 277.848358 628.929565 278.302704 C 626.356567 274.447693 619.321167 272.941589 615.381165 275.387604 C 611.515137 277.787598 613.977417 281.188904 609.820374 280.474915 C 607.866394 280.138916 603.648865 279.867401 602.313843 281.333405 C 601.059692 282.916962 605.017517 286.14679 603.006531 285.955719 C 601.057617 285.587708 596.066589 291.981689 596.066589 291.981689 L 594.215576 289.7117 C 591.274597 291.628693 592.24054 296.6297 595.200562 298.511719 C 596.313599 299.219391 598.887573 300.984375 600.181213 301.14505 C 601.228516 301.275146 602.099243 296.257202 603.181213 296.14505 C 604.316833 296.027313 604.328186 299.425842 605.417542 299.158722 C 609.522034 298.153137 613.759705 297.803131 617.973572 298.121765 C 624.410583 299.030762 628.893555 306.721771 626.509583 312.773773 C 628.982605 310.345764 633.557556 312.360779 634.838562 315.58078 C 636.119568 318.800781 632.606323 320.049286 631.656372 323.382294"/>
        </g>
    </g>
</svg>
