<?xml version="1.0" encoding="UTF-8"?>
<!-- Generated by Pixelmator Pro 3.4.1 -->
<svg width="742" height="712" viewBox="0 0 742 712" xmlns="http://www.w3.org/2000/svg">
    <g id="g1">
        <path id="d-116" fill="#e6e6e6" stroke="none" d="M 359.880981 472.001953 L 154.343994 472.001953 C 152.242889 471.999756 150.540192 470.296997 150.537994 468.195923 L 150.537994 417.211975 C 150.540741 415.111084 152.243134 413.408691 154.343994 413.405945 L 359.880981 413.405945 C 361.981873 413.408691 363.684265 415.111084 363.687012 417.211975 L 363.687012 468.19696 C 363.683716 470.297424 361.981445 471.999207 359.880981 472.001953 Z M 154.343994 414.927979 C 153.083023 414.929077 152.061096 415.950989 152.059998 417.211975 L 152.059998 468.19696 C 152.061096 469.457977 153.083023 470.479889 154.343994 470.480988 L 359.880981 470.480988 C 361.141968 470.479889 362.163879 469.457977 362.164978 468.19696 L 362.164978 417.211975 C 362.163879 415.950989 361.141968 414.929077 359.880981 414.927979 L 154.343994 414.927979 Z"/>
        <path id="g-119" fill="#2f2e41" stroke="none" d="M 165.237915 261.815918 C 165.468933 261.558929 165.699905 261.315918 165.937927 261.066925 C 171.737915 254.966919 174.787247 251.350922 181.866226 251.350922 C 183.17952 251.350922 188.969849 251.410583 190.169937 251.529907 C 195.140625 252.017242 199.115967 253.515228 202.095963 256.023895 C 206.495926 259.727875 208.701675 265.608215 208.712967 273.664886 C 208.712967 274.110901 208.738953 274.941895 208.779984 276.044891 C 209.042007 282.4729 213.45192 289.299896 214.307938 291.618896 C 215.697937 295.394897 213.451965 307.489899 211.651993 309.956909 C 210.605972 311.397919 210.39505 307.785522 207.180023 308.462524 C 206.589996 308.590515 204.120987 313.362915 203.453995 313.454926 C 200.006851 313.911926 196.53096 314.117828 193.05397 314.070923 C 192.597977 314.070923 192.140945 314.070923 191.663956 314.060913 L 191.658966 314.060913 C 190.011993 314.050903 188.252945 314.003906 186.385956 313.932922 C 181.428543 313.831512 176.490631 313.280243 171.632965 312.285919 L 171.62796 312.285919 C 170.986969 312.141937 170.355988 311.977936 169.73996 311.803955 L 169.626984 311.772949 L 169.575943 311.672913 C 168.697037 309.884247 168.195953 307.933716 168.103973 305.942902 C 167.163849 307.211121 166.4711 308.645142 166.061981 310.169891 L 165.984955 310.462891 L 164.429031 305.421387 C 162.26033 304.488647 161.6586 307.907806 160.259979 306.00589 C 158.92215 304.022461 158.119843 301.726898 157.931 299.341919 C 157.22995 292.864929 159.892975 267.77594 165.237946 261.815948 Z"/>
        <path id="h-120" fill="#2f2e41" stroke="none" d="M 163.508972 470.128967 L 194.250977 470.128967 L 199.406006 444.639954 L 201.078003 470.128967 L 231.63501 470.128967 C 231.650024 451.237976 223.861938 404.69696 224.793945 404.305969 C 225.725967 403.914978 224.31897 402.674988 224.31897 402.674988 L 219.334961 385.560974 L 218.867981 383.949951 L 183.283936 383.949951 C 181.236145 385.873596 179.347275 387.959717 177.635925 390.187927 C 177.055893 390.926941 176.450912 391.726929 175.829895 392.587952 C 175.398865 393.197937 174.952881 393.839966 174.506897 394.511963 C 170.541794 400.414612 167.578003 406.931152 165.734924 413.79895 L 165.734924 413.803955 C 165.422302 414.978638 165.145264 416.180664 164.903931 417.409973 L 164.903931 417.414978 C 164.688904 418.507996 164.498901 419.61499 164.349915 420.748962 C 164.236923 421.574951 164.139893 422.41095 164.067932 423.256958 C 163.640198 427.945862 163.789978 432.669556 164.513916 437.32196 L 163.508972 470.128967 Z"/>
        <path id="i" fill="#ffb6b6" stroke="none" d="M 207.773972 278.784943 C 207.773972 288.696259 199.739273 296.730957 189.827957 296.730957 C 179.916656 296.730957 171.881943 288.696259 171.881943 278.784943 C 171.881943 268.873627 179.916656 260.838928 189.827957 260.838928 C 199.739273 260.838928 207.773972 268.873627 207.773972 278.784943 Z"/>
        <path id="j-121" fill="#2f2e41" stroke="none" d="M 178.03595 256.480927 L 195.604919 256.480927 C 197.730103 255.986267 199.920349 255.832001 202.093933 256.023926 C 204.765076 256.22757 207.316833 257.214386 209.429932 258.860931 C 212.573914 261.384918 214.307922 265.406921 214.307922 270.18692 C 214.299255 271.715332 214.613159 273.726837 214.307922 275.224487 L 212.172058 271.703735 L 211.607361 275.224487 C 209.986694 275.639801 210.40596 275.721558 208.777969 276.044891 C 208.387955 276.121887 207.992996 276.198883 207.597977 276.270905 C 205.464005 276.665894 203.429016 277.421356 203.429016 277.421356 L 201.005997 277.142914 C 199.492081 275.750671 199.237976 272.312347 198.429016 270.421356 C 198.270798 270.973083 198.07576 271.945465 197.885818 272.998077 C 197.396667 275.708923 195.030594 277.694366 192.275986 277.695984 L 192.229019 277.695953 C 185.488602 277.69104 185.491104 272.473328 178.946732 270.859497 C 178.515701 270.759491 182.916031 301.264221 182.491043 301.151184 L 169.011627 292.48584 L 170.752045 263.764923 C 170.756424 259.743927 174.014984 256.485352 178.03598 256.480896 L 178.035965 256.480927 L 178.035934 256.480927 Z"/>
        <path id="k-122" fill="#2f2e41" stroke="none" d="M 159.618057 254.888733 C 156.382706 261.50293 158.735794 262.989197 165.350006 266.224518 C 171.964157 269.459869 180.334793 273.219055 183.570099 266.604858 C 186.805435 259.990723 181.139252 254.586212 174.52507 251.350922 C 175.936829 245.869049 166.478821 243.356995 161.888382 251.606689 C 163.465668 252.924896 159.833878 256.506714 160.614975 258.408173 C 159.003143 257.106903 161.796982 254.615295 159.74086 254.86734 C 159.700272 254.873901 159.661865 254.880646 159.618042 254.888702 L 159.618057 254.888733 Z"/>
        <path id="path1" fill="#e6e6e6" stroke="none" d="M 292.090424 266.224518 C 292.090424 271.747375 287.613281 276.224518 282.090424 276.224518 C 276.567566 276.224518 272.090424 271.747375 272.090424 266.224518 C 272.090424 260.70166 276.567566 256.224518 282.090424 256.224518 C 287.613281 256.224518 292.090424 260.70166 292.090424 266.224518 Z"/>
        <path id="path2" fill="#00bfa6" stroke="none" d="M 326.230438 264.594513 C 325.830414 263.90451 325.110443 263.484528 324.310394 263.484528 C 323.510406 263.484528 322.790436 263.90451 322.390411 264.594513 L 318.090424 274.224518 C 316.385071 263.009155 310.051147 253.296082 302.110443 244.104492 C 301.520416 243.094482 300.480438 242.494446 299.310394 242.494446 C 298.140411 242.494446 297.100433 243.094482 296.510406 244.104492 C 292.754761 260.916656 282.461182 277.137512 268.872986 293.060425 C 267.68924 296.011536 269.862244 299.224518 273.041931 299.224518 L 337.280731 299.224518 C 341.341522 299.224518 344.219238 295.26059 342.961578 291.399506 C 340.590302 280.536255 335.635742 271.226868 326.230438 264.594513 Z"/>
        <path id="path3" fill="#e6e6e6" stroke="none" d="M 306.690399 218.224487 C 275.260406 218.224487 249.690399 243.794495 249.690399 275.224487 C 249.690399 287.964478 253.890411 299.744446 260.990448 309.244446 C 271.390411 323.184448 288.000397 332.224487 306.690399 332.224487 C 325.900421 332.224487 342.920441 322.6745 353.250397 308.074463 C 359.820404 298.784485 363.690399 287.444458 363.690399 275.224487 C 363.690399 243.794495 338.120453 218.224487 306.690399 218.224487 L 306.690399 218.224487 Z M 352.140411 306.15448 C 342.230438 320.6745 325.550446 330.224487 306.690399 330.224487 C 288.340424 330.224487 272.070404 321.194458 262.080414 307.354492 C 255.540436 298.314453 251.690399 287.204468 251.690399 275.224487 C 251.690399 244.89447 276.360443 220.224487 306.690399 220.224487 C 337.010406 220.224487 361.690399 244.89447 361.690399 275.224487 C 361.690399 286.684448 358.170441 297.334473 352.140411 306.15448 Z"/>
        <g id="g2">
            <path id="path4" fill="#ffb6b6" stroke="none" d="M 249.497208 294.312134 L 249.497208 294.312134 C 252.107712 290.42923 256.22699 288.628204 258.697937 290.289429 C 261.168884 291.950653 261.055756 296.445007 258.445282 300.327911 C 257.302582 302.027588 255.870728 303.328247 254.414627 304.114319 L 243.14682 320.428528 L 235.603607 314.977814 L 247.512085 299.473724 C 247.690506 297.828644 248.354584 296.01178 249.497269 294.312103 L 249.497269 294.312103 L 249.497208 294.312134 Z"/>
            <path id="path5" fill="#00bfa6" stroke="none" d="M 247.200012 316.105957 L 216.359985 351.52594 L 213.520004 354.78595 L 200.309998 350.005981 L 179.929993 342.615967 L 179.919983 342.615967 L 164.679993 337.095947 C 164.840027 335.745972 165.059998 334.405945 165.349976 333.075989 C 165.659973 331.615967 166.039963 330.165955 166.499985 328.735962 C 167.87999 324.415955 169.909958 320.305969 172.530014 316.565979 C 173.509995 316.965942 174.489975 317.445984 175.479965 317.995972 L 198.199997 327.835938 L 210.840012 333.305969 L 216.009995 328.265991 L 238.280014 306.545959 L 240.35997 308.77594 L 240.36998 308.78595 L 246.580002 315.445984 L 246.590012 315.455994 L 247.199997 316.105957 Z"/>
        </g>
        <path id="path6" fill="#00bfa6" stroke="none" d="M 223.969971 391.835938 L 172.330017 389.605957 C 173.099976 388.015991 171.929993 386.365967 172.320007 384.975952 C 172.669983 383.765991 174.630005 382.795959 174.690002 381.665955 C 175.050003 375.545959 174.119995 365.585938 167.099976 354.895935 C 165.650024 352.675964 164.940002 349.77594 164.609985 346.545959 C 164.280029 343.365967 164.309998 340.205994 164.679993 337.095947 C 164.840027 335.745972 165.059998 334.405945 165.349976 333.075989 C 165.659973 331.615967 166.039978 330.165955 166.5 328.735962 C 167.880005 324.415955 169.909973 320.305969 172.530029 316.565979 C 172.700012 316.305969 172.880005 316.055969 173.059998 315.805969 C 174.030029 314.465942 175.070007 313.175964 176.190002 311.935974 C 177.47998 310.505981 178.869995 309.145935 180.340027 307.865967 L 182.570007 305.935974 L 203.309998 303.115967 L 214.159973 324.605957 L 216.01001 328.265961 L 218.01001 332.225922 C 216.859985 337.615936 216.349976 342.405914 216.27002 346.775909 C 216.23999 348.415924 216.27002 349.995941 216.359985 351.525909 C 216.48999 353.915924 216.729996 356.185944 217.070007 358.365967 C 217.890015 363.715942 219.200012 368.575989 220.429993 373.495941 C 221.080017 376.065979 221.700027 378.645905 222.210037 381.325989 C 222.450027 382.585938 224.979996 385.065979 225.340027 386.205963 C 225.830017 387.735931 223.22998 390.545959 223.969971 391.835907 Z"/>
        <g id="g3">
            <path id="path7" fill="#ffb6b6" stroke="none" d="M 262.962585 348.732086 L 262.962585 348.732086 C 267.284149 346.938873 271.712524 347.714539 272.853668 350.46463 C 273.994812 353.214722 271.416595 356.897766 267.095032 358.69101 C 265.203308 359.475952 263.291168 359.768585 261.643219 359.618927 L 243.236176 366.98764 L 239.962189 358.276093 L 258.455414 351.936646 C 259.513306 350.664246 261.070892 349.51709 262.962555 348.732147 L 262.962555 348.732147 L 262.962585 348.732086 Z"/>
            <path id="path8" fill="#00bfa6" stroke="none" d="M 166.5 328.735962 C 166.039993 330.165955 165.660004 331.615967 165.350006 333.075958 L 199.550003 379.245972 L 220.430008 373.495972 L 249.01001 365.625977 L 248.860016 364.735962 L 247.360016 355.735962 L 246.860016 352.725952 L 217.070007 358.365967 L 209.200012 359.855957 L 195.890015 339.385956 L 195.88002 339.385956 L 188.190018 327.555969 C 184.550018 320.505981 179.02002 316.445984 173.060013 315.805969 L 166.500015 328.735962 L 166.5 328.735962 Z"/>
        </g>
        <path id="path9" fill="#e6e6e6" stroke="none" d="M 365.921173 470.480957 C 365.921173 473.816864 363.216888 476.521149 359.880981 476.521149 C 356.545074 476.521149 353.84079 473.816864 353.84079 470.480957 C 353.84079 467.14505 356.545074 464.440765 359.880981 464.440765 C 363.216888 464.440765 365.921173 467.14505 365.921173 470.480957 Z"/>
    </g>
</svg>
